<svg xmlns="http://www.w3.org/2000/svg" data-name="San Francisco Citysets" viewBox="0 0 32 40" x="0px" y="0px"><title>alcatraz-island</title><path d="M27,21.17V11H23V5.59l-3-3-3,3V11H15.5l-4-5.33L7.5,11H5V21.17A3.678,3.678,0,0,0,3.02,23H3.01A10.721,10.721,0,0,0,2,28v1H30V28C30,24.31,28.87,21.81,27,21.17ZM23,13h2v8H23ZM19,6.42l1-1,1,1V23H19ZM11.5,9,13,11H10ZM7,13H17v8H7ZM4.03,27c.17-2.37.92-3.97,1.95-4H17v2h6V23h3c1.04,0,1.8,1.6,1.97,4Z"/><text x="0" y="47" fill="#000000" font-size="5px" font-weight="bold" font-family="'Helvetica Neue', Helvetica, Arial-Unicode, Arial, Sans-serif">Created by Bryn Taylor</text><text x="0" y="52" fill="#000000" font-size="5px" font-weight="bold" font-family="'Helvetica Neue', Helvetica, Arial-Unicode, Arial, Sans-serif">from the Noun Project</text></svg>