<svg xmlns="http://www.w3.org/2000/svg" data-name="San Francisco Citysets" viewBox="0 0 32 40" x="0px" y="0px"><title>golden-gate-bridge</title><path d="M31,19H29V6H23V7A7,7,0,0,1,9,7V6H3V19H1v2H3v6H9V21H23v6h6V21h2ZM7,25H5V8H7ZM9,12.64a8.978,8.978,0,0,0,2,1.84V19H9Zm4,2.84a8.432,8.432,0,0,0,2,.46V19H13Zm4,.46a8.432,8.432,0,0,0,2-.46V19H17ZM21,19V14.48a8.978,8.978,0,0,0,2-1.84V19Zm6,6H25V8h2Z"/><text x="0" y="47" fill="#000000" font-size="5px" font-weight="bold" font-family="'Helvetica Neue', Helvetica, Arial-Unicode, Arial, Sans-serif">Created by Bryn Taylor</text><text x="0" y="52" fill="#000000" font-size="5px" font-weight="bold" font-family="'Helvetica Neue', Helvetica, Arial-Unicode, Arial, Sans-serif">from the Noun Project</text></svg>