<svg xmlns="http://www.w3.org/2000/svg" data-name="San Francisco Citysets" viewBox="0 0 32 40" x="0px" y="0px"><defs><style>.cls-1{fill-rule:evenodd;}</style></defs><title>cable-car</title><path class="cls-1" d="M26,6H23V3.333l-.615-.257A17.935,17.935,0,0,0,16,2,17.928,17.928,0,0,0,9.615,3.077L9,3.333V6H6V24h4.914L8.568,29.53l1.841.781L11.389,28h9.134l.92,2.3,1.856-.743L21.077,24H26ZM24,8v6H20V8Zm-6,6H14V8h4ZM11,4.713a17.891,17.891,0,0,1,10,0V6H11ZM8,8h4v6H8ZM19.723,26H12.238l.848-2h5.837ZM8,22V16H24v6Zm10-3a2,2,0,1,1-2-2A2,2,0,0,1,18,19Z"/><text x="0" y="47" fill="#000000" font-size="5px" font-weight="bold" font-family="'Helvetica Neue', Helvetica, Arial-Unicode, Arial, Sans-serif">Created by Bryn Taylor</text><text x="0" y="52" fill="#000000" font-size="5px" font-weight="bold" font-family="'Helvetica Neue', Helvetica, Arial-Unicode, Arial, Sans-serif">from the Noun Project</text></svg>