<svg xmlns="http://www.w3.org/2000/svg" data-name="San Francisco Citysets" viewBox="0 0 32 40" x="0px" y="0px"><title>chinatown</title><path d="M27,18h4l-3-5H25V11h4L26.62,6.24A5.094,5.094,0,0,0,28.14,4.8,4.983,4.983,0,0,0,29,2H27a3.029,3.029,0,0,1-3,3H8A3.029,3.029,0,0,1,5,2H3A4.941,4.941,0,0,0,5.38,6.24L3,11H7v2H4L1,18H5v6H3v5h9V24H11V18h3V13H9V11H23v2H18v5h3v6H20v5h9V24H27ZM10,27H5V26h5ZM7,24V18H9v6Zm5-9v1H4.53l.6-1ZM6.24,9l1-2H24.76l1,2ZM20,16V15h6.87l.6,1Zm5,2v6H23V18Zm2,9H22V26h5Z"/><text x="0" y="47" fill="#000000" font-size="5px" font-weight="bold" font-family="'Helvetica Neue', Helvetica, Arial-Unicode, Arial, Sans-serif">Created by Bryn Taylor</text><text x="0" y="52" fill="#000000" font-size="5px" font-weight="bold" font-family="'Helvetica Neue', Helvetica, Arial-Unicode, Arial, Sans-serif">from the Noun Project</text></svg>