<svg xmlns="http://www.w3.org/2000/svg" data-name="San Francisco Citysets" viewBox="0 0 32 40" x="0px" y="0px"><defs><style>.cls-1{fill-rule:evenodd;}</style></defs><title>city-hall</title><path class="cls-1" d="M24,19V16.185l-2-.816V10H21a5.008,5.008,0,0,0-4-4.9V2H15V5.1A5.008,5.008,0,0,0,11,10H10v5.369l-2,.816V19H2V29H30V19ZM16,7a3,3,0,0,1,3,3H13A3,3,0,0,1,16,7Zm-4,5h8v2.552L16,12.92l-4,1.633Zm4,3.08,6,2.449V18H10v-.471ZM17,20v7H15V20ZM8,27H4V21H8Zm2-7h3v7H10Zm9,7V20h3v7Zm9,0H24V21h4Z"/><text x="0" y="47" fill="#000000" font-size="5px" font-weight="bold" font-family="'Helvetica Neue', Helvetica, Arial-Unicode, Arial, Sans-serif">Created by Bryn Taylor</text><text x="0" y="52" fill="#000000" font-size="5px" font-weight="bold" font-family="'Helvetica Neue', Helvetica, Arial-Unicode, Arial, Sans-serif">from the Noun Project</text></svg>