<svg xmlns="http://www.w3.org/2000/svg" data-name="San Francisco Citysets" viewBox="0 0 32 40" x="0px" y="0px"><title>crab</title><path d="M30.1,3.84l-.26-1.53L26.11,4.8,22.38,2.31l-.25,1.53c-.07.39-.6,3.91,1.08,5.89A3.5,3.5,0,0,0,25,10.84v1.75L22.89,14.7a14.64,14.64,0,0,0-3.32-1.94l.92-3.43-1.94-.52-.9,3.37a7.653,7.653,0,0,0-3.3,0l-.9-3.37-1.93.52.92,3.43A14.937,14.937,0,0,0,9.11,14.7L7,12.59V10.91A3.6,3.6,0,0,0,9.02,9.73c1.67-1.98,1.15-5.5,1.08-5.89L9.84,2.31,6.11,4.8,2.38,2.31,2.13,3.84c-.07.39-.6,3.91,1.08,5.89A3.5,3.5,0,0,0,5,10.84v2.57l2.57,2.58a16.168,16.168,0,0,0-1.33,1.37L5.69,18l.55.64A16.782,16.782,0,0,0,8.1,20.49L5,23.59V27H7V24.41l2.69-2.69a15.476,15.476,0,0,0,2,1.18L9,25.59V29h2V26.41l2.71-2.7-.05-.06A8.281,8.281,0,0,0,16,24a8.4,8.4,0,0,0,2.35-.35l-.06.06L21,26.41V29h2V25.59L20.32,22.9a16.048,16.048,0,0,0,1.99-1.18L25,24.41V27h2V23.59l-3.1-3.1a17.428,17.428,0,0,0,1.87-1.85l.54-.64-.54-.64a17.3,17.3,0,0,0-1.34-1.37L27,13.41v-2.5a3.6,3.6,0,0,0,2.02-1.18C30.69,7.75,30.17,4.23,30.1,3.84ZM4.74,8.44A4.471,4.471,0,0,1,4,5.79L6.11,7.2,8.22,5.8a4.473,4.473,0,0,1-.73,2.63A1.66,1.66,0,0,1,6.11,9,1.663,1.663,0,0,1,4.74,8.44ZM16,22c-3.27,0-6.36-2.72-7.63-4,1.26-1.28,4.35-4,7.63-4s6.37,2.72,7.63,4C22.37,19.28,19.29,22,16,22ZM27.49,8.43a1.956,1.956,0,0,1-2.75.01A4.471,4.471,0,0,1,24,5.79L26.11,7.2l2.11-1.4A4.473,4.473,0,0,1,27.49,8.43Z"/><text x="0" y="47" fill="#000000" font-size="5px" font-weight="bold" font-family="'Helvetica Neue', Helvetica, Arial-Unicode, Arial, Sans-serif">Created by Bryn Taylor</text><text x="0" y="52" fill="#000000" font-size="5px" font-weight="bold" font-family="'Helvetica Neue', Helvetica, Arial-Unicode, Arial, Sans-serif">from the Noun Project</text></svg>