<svg xmlns="http://www.w3.org/2000/svg" data-name="San Francisco Citysets" viewBox="0 0 32 40" x="0px" y="0px"><title>ferry-building</title><path d="M21,20V9H20V5H17V2H15V5H12V9H11V20H6V30H26V20ZM14,7h4V9H14Zm-1,4h6v9H13Zm0,13.38c-.12-.13-.25-.26-.38-.38A4,4,0,0,0,10,23a4.09,4.09,0,0,0-1,.14,3.85,3.85,0,0,0-1,.42V22H24v1.56a3.85,3.85,0,0,0-1-.42A4.09,4.09,0,0,0,22,23a4,4,0,0,0-2.62,1l-.38.38L18.62,24a3.932,3.932,0,0,0-5.24,0c-.13.12-.26.25-.38.38M8,28V27a2,2,0,0,1,4,0v1Zm6,0V27a2,2,0,0,1,4,0v1Zm10,0H20V27a2,2,0,0,1,4,0ZM18,15a2,2,0,1,1-2-2A2.006,2.006,0,0,1,18,15Z"/><text x="0" y="47" fill="#000000" font-size="5px" font-weight="bold" font-family="'Helvetica Neue', Helvetica, Arial-Unicode, Arial, Sans-serif">Created by Bryn Taylor</text><text x="0" y="52" fill="#000000" font-size="5px" font-weight="bold" font-family="'Helvetica Neue', Helvetica, Arial-Unicode, Arial, Sans-serif">from the Noun Project</text></svg>