<svg xmlns="http://www.w3.org/2000/svg" data-name="San Francisco Citysets" viewBox="0 0 32 40" x="0px" y="0px"><defs><style>.cls-1{fill-rule:evenodd;}</style></defs><title>seal</title><path class="cls-1" d="M27,19.44l4.17-1.12-.51-1.93L27,17.37V13A11,11,0,0,0,5,13v4.37l-3.66-.98L.83,18.32,5,19.44v1.12L.83,21.68l.51,1.93L5,22.63v7.01H27V22.63l3.66.98.51-1.93L27,20.56Zm-2,8.2H7V13a9,9,0,0,1,18,0ZM23.39,16.55l-1.78.9A2.358,2.358,0,0,1,22,19a2.409,2.409,0,0,1-.43,1.16,9.023,9.023,0,0,0-3.97-1.98A1.953,1.953,0,0,0,18,17a2,2,0,0,0-4,0,1.953,1.953,0,0,0,.4,1.18,9.186,9.186,0,0,0-3.97,1.98A2.409,2.409,0,0,1,10,19a2.358,2.358,0,0,1,.39-1.55l-1.78-.9A3.893,3.893,0,0,0,8,19a3.724,3.724,0,0,0,1.79,3.14,1.624,1.624,0,0,0,1.59-.18A4.966,4.966,0,0,0,16,25.07h.09a5.008,5.008,0,0,0,4.53-3.1,1.649,1.649,0,0,0,1.59.17A3.724,3.724,0,0,0,24,19,3.893,3.893,0,0,0,23.39,16.55Zm-7.34,6.52a3.007,3.007,0,0,1-2.97-2.31,5.97,5.97,0,0,1,5.83,0A3.007,3.007,0,0,1,16.05,23.07ZM14,12.5A1.5,1.5,0,1,1,12.5,11,1.5,1.5,0,0,1,14,12.5Zm7,0A1.5,1.5,0,1,1,19.5,11,1.5,1.5,0,0,1,21,12.5Z"/><text x="0" y="47" fill="#000000" font-size="5px" font-weight="bold" font-family="'Helvetica Neue', Helvetica, Arial-Unicode, Arial, Sans-serif">Created by Bryn Taylor</text><text x="0" y="52" fill="#000000" font-size="5px" font-weight="bold" font-family="'Helvetica Neue', Helvetica, Arial-Unicode, Arial, Sans-serif">from the Noun Project</text></svg>