<svg xmlns="http://www.w3.org/2000/svg" data-name="San Francisco Citysets" viewBox="0 0 32 40" x="0px" y="0px"><title>sutro-tower</title><path d="M21.98,8H24V6H21.99L22,2H20V6H17V2H15V6H12V2H10V6H8V8h2l.98,5.01L8.02,29.83l1.96.34L10.72,26H15v4h2V26h4.28l.74,4.17,1.96-.34L21.02,13.01l.96-4.81ZM15,24H11.07l.71-4H15Zm0-6H12.13l.71-4H15Zm0-6H12.82l-.8-4H15Zm2-4h2.98l-.8,4H17Zm0,6h2.16l.71,4H17Zm0,10V20h3.22l.71,4Z"/><text x="0" y="47" fill="#000000" font-size="5px" font-weight="bold" font-family="'Helvetica Neue', Helvetica, Arial-Unicode, Arial, Sans-serif">Created by Bryn Taylor</text><text x="0" y="52" fill="#000000" font-size="5px" font-weight="bold" font-family="'Helvetica Neue', Helvetica, Arial-Unicode, Arial, Sans-serif">from the Noun Project</text></svg>